<svg width="13" height="25" viewBox="0 0 13 25" fill="none" xmlns="http://www.w3.org/2000/svg">
<path opacity="0.7" d="M10.888 6.4H12.5V18.828C12.5 19.92 12.2313 20.9253 11.694 21.844C11.174 22.7627 10.4547 23.4907 9.536 24.028C8.63467 24.5653 7.64667 24.834 6.572 24.834C5.49733 24.834 4.50067 24.5653 3.582 24.028C2.66333 23.4907 1.92667 22.7627 1.372 21.844C0.834667 20.9253 0.566 19.92 0.566 18.828V5.334C0.566 4.554 0.765334 3.83467 1.164 3.176C1.56267 2.5 2.09133 1.96267 2.75 1.564C3.426 1.16533 4.154 0.966 4.934 0.966C5.714 0.966 6.43333 1.16533 7.092 1.564C7.75067 1.94533 8.27067 2.474 8.652 3.15C9.05067 3.826 9.25 4.554 9.25 5.334V16.696C9.25 17.1813 9.12867 17.632 8.886 18.048C8.64333 18.464 8.314 18.7933 7.898 19.036C7.49933 19.2787 7.05733 19.4 6.572 19.4C6.08667 19.4 5.62733 19.2787 5.194 19.036C4.778 18.7933 4.44 18.464 4.18 18.048C3.93733 17.632 3.816 17.1813 3.816 16.696V6.4H5.454V16.696C5.454 17.008 5.558 17.268 5.766 17.476C5.99133 17.6667 6.26 17.762 6.572 17.762C6.884 17.762 7.13533 17.6667 7.326 17.476C7.534 17.268 7.638 17.008 7.638 16.696V5.334C7.638 4.84867 7.51667 4.398 7.274 3.982C7.03133 3.54867 6.702 3.21067 6.286 2.968C5.87 2.708 5.41933 2.578 4.934 2.578C4.44867 2.578 3.998 2.708 3.582 2.968C3.166 3.21067 2.828 3.54867 2.568 3.982C2.32533 4.398 2.204 4.84867 2.204 5.334V18.828C2.204 19.608 2.40333 20.336 2.802 21.012C3.20067 21.688 3.72933 22.2253 4.388 22.624C5.064 23.0227 5.792 23.222 6.572 23.222C7.352 23.222 8.07133 23.0227 8.73 22.624C9.38867 22.2253 9.90867 21.688 10.29 21.012C10.6887 20.336 10.888 19.608 10.888 18.828V6.4Z" fill="white"/>
</svg>
