<svg xmlns="http://www.w3.org/2000/svg" xmlns:xlink="http://www.w3.org/1999/xlink" width="20" height="20" viewBox="0 0 20 20"><defs><mask id="a" x="0" y="0" width="20" height="20" maskUnits="userSpaceOnUse"><path d="M0,0H20V20H0Z" fill="#fff" fill-rule="evenodd"/></mask></defs><g mask="url(#a)"><path d="M15.39,8v.33A7.29,7.29,0,0,1,4.17,14.42h.61A5.13,5.13,0,0,0,8,13.36a2.54,2.54,0,0,1-2.39-1.78,1.93,1.93,0,0,0,.48,0,2.59,2.59,0,0,0,.68-.09A2.55,2.55,0,0,1,4.67,9h0a2.76,2.76,0,0,0,1.16.32A2.57,2.57,0,0,1,5,5.88a7.23,7.23,0,0,0,5.28,2.68,2.63,2.63,0,0,1,0-.56,2.56,2.56,0,0,1,2.55-2.57h0a2.6,2.6,0,0,1,1.87.81,5,5,0,0,0,1.63-.62A2.57,2.57,0,0,1,15.19,7a5.41,5.41,0,0,0,1.48-.4A5.51,5.51,0,0,1,15.39,8ZM10,0A10,10,0,1,0,20,10,10,10,0,0,0,10,0Z" fill="#343434" fill-rule="evenodd"/></g></svg>