<svg xmlns="http://www.w3.org/2000/svg" width="144" height="144" viewBox="0 0 144 144"><path d="M144,144H127.4C78.91,140.76,35,123.6.36,94.38L0,94.08V0H43.45l.28.55C62.94,38.24,100.05,60.93,143,61.24h1ZM2,93.15C36.27,121.92,79.64,138.8,127.47,142H142V63.23A115.64,115.64,0,0,1,83.5,46.54,112.55,112.55,0,0,1,42.23,2H2Z"/><path d="M95,133.76l-1.38,0A219.55,219.55,0,0,1,63.78,125l-.65-.24V113c-3.93-1.57-7.88-3.3-11.77-5.15l0,4.52-.08,1.47-1.34-.63a196.56,196.56,0,0,1-21.2-11.6l-.47-.3V88.27c-2.18-1.52-4.15-2.94-6-4.34l-.4-.3V78.44H5.47V46.89h7.46V64.22h8.91V33.64H10.93V10.91h5.45V5.45H40.56V26.61A169.11,169.11,0,0,0,59,46.29V41.62c-2.46-2.24-4.85-4.62-7.1-7.07-1.47-1.59-2.93-3.26-4.34-4.94l-.31-.39V19.47l1.31-.65.53.66a115.08,115.08,0,0,0,8.28,10,115.17,115.17,0,0,0,24.39,20,116.24,116.24,0,0,0,29,12.66c1.08.3,2.19.59,3.29.88l.87.25v7.63l-1.23-.28c-1.9-.47-3.47-.87-4.94-1.28a125.51,125.51,0,0,1-18-6.62v9.73a132.35,132.35,0,0,0,15.56,5.45,133.89,133.89,0,0,0,15.09,3.36l.84.13v8.35h16.36V109.2h-12.9v-8.45H122.2v16.43h10.91v15.93h-5.33c-6.78-.46-13.5-1.21-20-2.25l-.84-.13V119.64A207.23,207.23,0,0,1,76,111.92v9.37c5.94,1.9,12.08,3.56,18.28,4.93l.78.18ZM65.13,123.34A219,219,0,0,0,93,131.56V128c-6.23-1.41-12.4-3.1-18.36-5l-.7-.22V109.13l1.33.45a204.46,204.46,0,0,0,32.78,8.23l1,.17-.18,1v10c6.22,1,12.6,1.66,19,2.09h3.26V119.18H120.2V98.75h7.46v8.45h8.9V91.75H120.2V83.1a131.89,131.89,0,0,1-14.47-3.27,134.83,134.83,0,0,1-16.4-5.78l-.58-.25,0-1.15V59.58l1.43.68a121.63,121.63,0,0,0,19.1,7.16c1.12.31,2.3.62,3.63,1V64.8c-.9-.23-1.81-.47-2.71-.73A118.59,118.59,0,0,1,80.66,51.2,117.48,117.48,0,0,1,55.85,30.86c-2.29-2.47-4.52-5.1-6.65-7.85v5.5c1.33,1.59,2.72,3.17,4.12,4.69,2.3,2.49,4.73,4.91,7.24,7.19l.13.14a1.41,1.41,0,0,1,.26.92v9.07l-1.63-1.3C54.06,45,43.5,33.87,38.76,27.54l-.2-.26V7.45H18.38v5.46H12.93V31.64H23.84V66.22H10.93V48.89H7.47V76.44H23.84v6.19c1.86,1.39,3.84,2.8,6,4.31l.46.32-.07,1.16v11.81a194.54,194.54,0,0,0,19.12,10.52v-6.08l1.44.71c4.51,2.19,9.12,4.23,13.7,6l.63.25Z"/><path d="M138.55,138.55h-11a238.35,238.35,0,0,1-28.39-3.66l.38-2a237.07,237.07,0,0,0,28.08,3.62h8.9V113.73h2Zm-78.3-14.93A202.23,202.23,0,0,1,5.82,91.83l-.37-.3V82.82h2v7.76A200.7,200.7,0,0,0,61,121.76Zm78.3-38.42h-2V68.49a123.41,123.41,0,0,1-17.48-2.26l.4-2a120.93,120.93,0,0,0,18.13,2.28l1,0ZM7.45,42.47h-2v-37h6.48v2H7.45ZM44.2,16.11c-1-1.57-1.94-3-2.78-4.39l1.71-1c.82,1.37,1.72,2.78,2.74,4.33Z"/><path d="M102.11,129.89l-2.91-.54.37-2,2.91.55ZM58.34,117h0l-3.07-1.31.79-1.83.15.06,2.92,1.25Zm74.75-14.21h-2V96.24h2ZM23,97.9c-4-2.73-8-5.64-11.74-8.66l-.37-.31V82.82h2V88c3.62,2.89,7.39,5.67,11.23,8.28ZM133.09,85.2h-2V73.53c-4.1-.41-8.14-1-12-1.75l.38-2c4.09.79,8.37,1.4,12.72,1.8l.91.09ZM12.91,72h-2V70.51h2Zm71-12.65c-2.26-1.21-4.26-2.36-6.11-3.5a123.78,123.78,0,0,1-13-9.13l1.26-1.55a122.75,122.75,0,0,0,12.75,9c1.82,1.12,3.78,2.24,6,3.44Zm-71-16.88h-2V38.2h2Zm31-17.39c-.38-.49-.74-1-1.1-1.48L42.34,23,44,21.79l.46.63c.36.48.71,1,1.08,1.45Z"/><path d="M127.64,127.62l-1.08-.08c-4.5-.34-9-.82-13.46-1.42l.27-2c4,.54,8.16,1,12.27,1.32v-1.88h2Zm-25.53-3.27A210.61,210.61,0,0,1,80,118.94l.58-1.91a207,207,0,0,0,21.91,5.35ZM44.63,104.5c-3.46-1.81-7-3.8-10.46-5.92l1-1.71c3.44,2.1,6.92,4.07,10.34,5.86ZM23.2,91.38c-2.16-1.53-4.27-3.1-6.45-4.79l-.39-.3V82.82h2v2.49c2,1.56,4,3,6,4.44ZM127.62,85.2h-2V78.39a135,135,0,0,1-18.44-3.83,127.74,127.74,0,0,1-12.47-4.21l.73-1.86a126.74,126.74,0,0,0,12.29,4.15,133.85,133.85,0,0,0,19,3.88l.87.11ZM18.36,72h-2V70.51h2ZM84,65.51c-3.12-1.59-6.14-3.27-9-5-3.52-2.16-7-4.55-10.43-7.11l1.21-1.6c3.34,2.53,6.8,4.88,10.26,7,2.8,1.7,5.77,3.36,8.84,4.93Zm-65.59-5.6h-2V38.2h2Zm0-32.91h-2V16.36H33.83l.29.48c1,1.59,1.89,3,2.78,4.33l-1.66,1.11c-.81-1.21-1.64-2.5-2.52-3.92H18.36Z"/><rect x="22.82" y="10.91" width="10.71" height="2"/><path d="M115.75,121l-1.33-.17h0l-1.3-.17.25-2,1.31.18L116,119ZM68.91,109.42l-.93-.35-1.76-.69A188.79,188.79,0,0,1,34.15,92.13l1.08-1.68A187.43,187.43,0,0,0,67,106.52c.58.24,1.15.46,1.73.68l.94.36ZM23.82,72h-2V70.51h2ZM84,71.59a132.92,132.92,0,0,1-11.84-6.43A132.34,132.34,0,0,1,43.83,42,138.74,138.74,0,0,1,29.71,23.82H23.82V27h-2V21.82h9l.3.46A134.92,134.92,0,0,0,45.3,40.63,130.63,130.63,0,0,0,73.17,63.46c3.72,2.27,7.64,4.4,11.66,6.33Z"/></svg>