<svg xmlns="http://www.w3.org/2000/svg" width="143" height="143" viewBox="0 0 143 143"><path d="M126.44,126.42H113.59C76.69,124,43.29,110.9,16.93,88.68l-.36-.3V16.57H50l.27.55c14.55,28.54,42.67,45.72,75.21,46h1Zm-107.87-39c26,21.76,58.85,34.55,95.09,37h10.78V65.07c-32.67-.58-60.87-17.89-75.7-46.5H18.57Z"/><path d="M130.58,130.56l-17.36,0a179.77,179.77,0,0,1-53.76-11.91,161.89,161.89,0,0,1-45.2-26.79L12.43,90.3V12.43H52.51l1.42,2.8A80.56,80.56,0,0,0,66.59,33.42,79,79,0,0,0,83.31,47.11a80.12,80.12,0,0,0,19.92,8.69,84.18,84.18,0,0,0,22.24,3.14l5.11,0ZM14.43,89.37l1.12.94a159.92,159.92,0,0,0,44.64,26.46,178.05,178.05,0,0,0,53.19,11.78h15.2V61l-3.12,0a85.73,85.73,0,0,1-22.78-3.22,81.87,81.87,0,0,1-20.41-8.9,81,81,0,0,1-17.15-14,82.62,82.62,0,0,1-13-18.65l-.87-1.7H14.43Z"/><path d="M134.73,134.7H113a183.79,183.79,0,0,1-55-12.2A165.46,165.46,0,0,1,11.58,95L8.29,92.23V8.29H55.05l2.58,5.07a76.9,76.9,0,0,0,12,17.26,74.61,74.61,0,0,0,15.84,13,75.87,75.87,0,0,0,18.88,8.23,79.53,79.53,0,0,0,21.14,3l9.23.06ZM10.29,91.3l2.58,2.19a163.56,163.56,0,0,0,45.8,27.14,181.46,181.46,0,0,0,54.43,12.06h19.63V56.84l-7.24-.05a81.36,81.36,0,0,1-21.67-3A78.05,78.05,0,0,1,84.44,45.3,76.67,76.67,0,0,1,68.18,32,78.84,78.84,0,0,1,55.85,14.27l-2-4H10.29Z"/><path d="M138.88,138.84l-26.17,0a187.79,187.79,0,0,1-56.28-12.46A169.93,169.93,0,0,1,8.92,98.18l-4.78-4v-90H57.59l3.73,7.33A72.55,72.55,0,0,0,72.68,27.8a70.84,70.84,0,0,0,15,12.25,71.38,71.38,0,0,0,17.84,7.78,75.49,75.49,0,0,0,20.05,2.82l13.34.09ZM6.14,93.22l4.07,3.43a167.82,167.82,0,0,0,46.95,27.84,186.39,186.39,0,0,0,55.68,12.33l.42,0h23.62V52.73l-11.35-.08A77.73,77.73,0,0,1,105,49.75a73.2,73.2,0,0,1-18.34-8,72.29,72.29,0,0,1-15.39-12.6A74.5,74.5,0,0,1,59.54,12.38L56.36,6.14H6.14Z"/><path d="M143,143l-30.6,0a192.11,192.11,0,0,1-57.5-12.75A174.13,174.13,0,0,1,6.24,101.35L0,96.08V0H60.13L65,9.59A67.85,67.85,0,0,0,75.71,25,66.45,66.45,0,0,0,89.79,36.52a67.18,67.18,0,0,0,16.81,7.33,70.9,70.9,0,0,0,18.94,2.67l17.46.12ZM2,95.15l5.53,4.67a172.16,172.16,0,0,0,48.1,28.53A189.78,189.78,0,0,0,112.54,141l.56,0H141V48.62l-15.47-.1a72.91,72.91,0,0,1-19.48-2.74,69.35,69.35,0,0,1-17.3-7.56A67.86,67.86,0,0,1,74.24,26.34a70.11,70.11,0,0,1-11-15.84L58.9,2H2Z"/></svg>