<svg xmlns="http://www.w3.org/2000/svg" width="143" height="143" viewBox="0 0 143 143"><path d="M125.93,130.2H112.72c-38-2.54-72.41-16-99.56-38.88l-.35-.3V17.07H47.16l.28.55C62.43,47,91.4,64.75,124.93,65h1ZM14.81,90.09c26.76,22.44,60.63,35.61,98,38.11h11.15V67c-33.67-.58-62.73-18.42-78-47.91H14.81Z"/><path d="M121.66,134.46H108.45c-38-2.54-72.41-16-99.56-38.88l-.35-.3V21.34H42.89l.28.55c15,29.42,44,47.13,77.5,47.37h1ZM10.54,94.35c26.76,22.44,60.63,35.62,98,38.11h11.14V71.25c-33.67-.58-62.73-18.42-78-47.91H10.54Z"/><path d="M117.39,138.73H104.18c-38-2.54-72.41-16-99.56-38.88l-.35-.3V25.61H38.62l.28.55c15,29.42,44,47.13,77.5,47.37h1ZM6.27,98.62c26.76,22.44,60.63,35.62,98,38.11h11.14V75.52c-33.67-.58-62.72-18.42-78-47.91H6.27Z"/><path d="M113.12,143H99.91c-38-2.54-72.41-16-99.55-38.88l-.36-.3V29.88H34.35l.28.54c15,29.43,44,47.14,77.5,47.38h1ZM2,102.89c26.77,22.44,60.63,35.62,98,38.11h11.14V79.79c-33.67-.58-62.72-18.43-78-47.91H2Z"/><path d="M143,113.12H129.79c-38-2.54-72.41-16-99.56-38.88l-.35-.3V0H64.23l.28.55c15,29.42,44,47.13,77.5,47.37h1ZM31.88,73c26.76,22.44,60.63,35.62,98,38.11H141V49.91C107.33,49.33,78.28,31.49,63,2H31.88Z"/><path d="M138.73,117.39H125.52c-38-2.54-72.4-16-99.55-38.88l-.36-.3V4.27H60l.28.54c15,29.43,44,47.14,77.5,47.38h1ZM27.61,77.28c26.77,22.44,60.64,35.62,98,38.11h11.14V54.18c-33.66-.59-62.72-18.43-78-47.91H27.61Z"/><path d="M134.46,121.66h-13.2c-38-2.54-72.41-16-99.56-38.88l-.36-.3V8.54H55.69l.28.54c15,29.43,44,47.14,77.5,47.38h1ZM23.34,81.55c26.77,22.44,60.64,35.61,98,38.11h11.14V58.44c-33.66-.58-62.72-18.42-78-47.9H23.34Z"/><path d="M130.2,125.93H117c-38-2.54-72.41-16-99.56-38.88l-.36-.3V12.81H51.43l.27.54c15,29.42,44,47.13,77.5,47.38h1ZM19.07,85.82c26.77,22.44,60.64,35.61,98,38.11H128.2V62.71c-33.67-.58-62.73-18.42-78-47.9H19.07Z"/></svg>