<svg xmlns="http://www.w3.org/2000/svg" width="144" height="144" viewBox="0 0 144 144"><path d="M144,144H127.4C78.91,140.76,35,123.6.36,94.38L0,94.08V0H43.45l.28.55C62.94,38.24,100.05,60.93,143,61.24h1ZM2,93.15C36.27,121.92,79.64,138.8,127.47,142H142V63.23A115.64,115.64,0,0,1,83.5,46.54,112.55,112.55,0,0,1,42.23,2H2Z"/><path d="M138.53,138.54h-11a224.06,224.06,0,0,1-67.33-14.92A202.23,202.23,0,0,1,5.8,91.83l-.36-.3V5.45h34.7l.28.53A117.26,117.26,0,0,0,57.3,29.5a115.17,115.17,0,0,0,24.39,20,116.61,116.61,0,0,0,29,12.66,122.29,122.29,0,0,0,26.89,4.4l.95,0ZM7.44,90.58A200.39,200.39,0,0,0,61,121.76a222.55,222.55,0,0,0,66.66,14.79h8.9v-68a123.39,123.39,0,0,1-26.38-4.42A118.49,118.49,0,0,1,80.64,51.2,117.48,117.48,0,0,1,55.83,30.86,119.41,119.41,0,0,1,39,7.45H7.44Z"/><path d="M133.09,133.11h-5.33a220,220,0,0,1-65.53-14.54A196.72,196.72,0,0,1,11.29,89.25l-.38-.3v-78H36.36v1l.87-.5A122.76,122.76,0,0,0,53.3,33.21,120.63,120.63,0,0,0,78.85,54.15,122,122,0,0,0,109.22,67.4a127.11,127.11,0,0,0,23,4.24l.91.08ZM12.91,88A195,195,0,0,0,63,116.71a217.51,217.51,0,0,0,64.86,14.4h3.26V73.54a129.77,129.77,0,0,1-22.42-4.21A124.13,124.13,0,0,1,77.81,55.85a122.4,122.4,0,0,1-26-21.28,125,125,0,0,1-16-21.64H12.91Z"/><path d="M127.66,127.62l-1.08-.08a214.14,214.14,0,0,1-62.33-14.06A192.54,192.54,0,0,1,16.77,86.61l-.39-.3V16.36H33.83l.3.48A127.12,127.12,0,0,0,49.32,36.92,125.33,125.33,0,0,0,76,58.8a127.67,127.67,0,0,0,31.73,13.86,134.42,134.42,0,0,0,19,3.88l.88.11ZM18.38,85.33A190.67,190.67,0,0,0,65,111.62a212,212,0,0,0,60.68,13.84V78.4a133.47,133.47,0,0,1-18.44-3.82A129.33,129.33,0,0,1,75,60.51,127.69,127.69,0,0,1,47.85,38.28,130,130,0,0,1,32.71,18.36H18.38Z"/></svg>