<svg width="104" height="27" viewBox="0 0 104 27" fill="none" xmlns="http://www.w3.org/2000/svg">
<path fill-rule="evenodd" clip-rule="evenodd" d="M104 3.58369L102.921 1.7474L99.9738 3.4185V0.0762946H97.815V3.4185L94.8682 1.7474L93.7888 3.58369L96.7357 5.25479L93.7888 6.92589L94.8682 8.76218L97.815 7.09108V10.4335H99.9738V7.09108L102.921 8.76218L104 6.92589L101.053 5.25479L104 3.58369ZM88.3161 17.8382H87.4785C85.004 17.8382 81.0061 18.1747 81.0061 20.8299C81.0061 22.1011 81.9582 23.2979 83.938 23.2979C86.4886 23.2979 88.3161 20.6055 88.3161 18.2869V17.8382ZM93.0749 14.6221V26.5514H88.6208V24.9809C88.6208 24.2329 88.6968 23.6346 88.6968 23.6346H88.6208C88.6589 23.6346 87.1358 27 82.7196 27C79.2548 27 76.1329 24.8686 76.1329 21.0541C76.1329 14.9958 84.4709 14.5847 87.6308 14.5847H88.278V14.3229C88.278 11.8174 86.6789 10.9573 84.5469 10.9573C81.7677 10.9573 79.2167 12.7896 79.2167 12.7896L77.3894 9.38675C77.3894 9.38675 80.397 7.03062 85.004 7.03062C90.1054 7.03062 93.0749 9.79791 93.0749 14.6221ZM67.7628 7.03062C63.8413 7.03062 61.7093 9.38675 60.8716 10.9947H60.7956C60.7956 10.9947 60.8716 10.3962 60.8716 9.68563V7.47939H56.2269V26.5514H61.0621V17.8007C61.0621 16.903 61.1383 16.0431 61.4047 15.2578C62.1281 12.9767 64.0317 11.3684 66.6207 11.3684C69.0953 11.3684 69.7042 12.9393 69.7042 15.2578V26.5514H74.5015V14.2856C74.5015 9.23704 72.0649 7.03062 67.7628 7.03062ZM49.7168 17.0155C49.7168 13.5002 47.0896 11.0696 43.9676 11.0696C40.8079 11.0696 38.1809 13.5002 38.1809 17.0155C38.1809 20.568 40.8079 22.9612 43.9676 22.9612C47.0896 22.9612 49.7168 20.568 49.7168 17.0155ZM54.628 17.0155C54.628 22.8864 49.869 27 43.9676 27C38.0285 27 33.2695 22.8864 33.2695 17.0155C33.2695 11.1817 38.0285 7.03062 43.9299 7.03062C49.869 7.03062 54.628 11.1817 54.628 17.0155ZM38.5995 4.37542H42.3306V0.0374275H38.5995V4.37542ZM45.605 4.37542H49.298V0.0374275H45.605V4.37542ZM27.5805 16.0057L33.7101 7.47939H28.342L23.6592 14.2108H21.2607V0H16.4256V26.5514H21.2607V18.2121H23.7735L28.9132 26.5514H34.4716L27.5805 16.0803V16.0057ZM14.9625 21.2786C14.9625 24.4571 12.145 27 7.5384 27C2.7032 27 0 24.1955 0 24.1955L2.20839 20.8671C2.20839 20.8671 4.34021 22.9612 7.50029 22.9612C8.87094 22.9612 10.0513 22.3629 10.0513 21.2412C10.0513 18.399 0.609117 18.773 0.609117 12.6401C0.609117 9.08733 3.84541 7.03062 8.03338 7.03062C12.4115 7.03062 14.5435 9.19961 14.5435 9.19961L12.7543 12.7147C12.7543 12.7147 10.9647 11.0695 7.99528 11.0695C6.73876 11.0695 5.52052 11.593 5.52052 12.7896C5.52052 15.4822 14.9625 15.1456 14.9625 21.2786Z" fill="white"/>
</svg>
